<svg width="1280" height="640" viewBox="0 0 1280 640" fill="none" xmlns="http://www.w3.org/2000/svg">
  <rect width="1280" height="640" fill="#E2E8F0"/>
  <rect x="24" y="24" width="1232" height="592" rx="28" fill="url(#bg)"/>
  <rect x="72" y="88" width="270" height="464" rx="22" fill="#0F172A" fill-opacity="0.92"/>
  <rect x="96" y="126" width="158" height="18" rx="9" fill="#38BDF8" fill-opacity="0.28"/>
  <rect x="96" y="164" width="206" height="14" rx="7" fill="#CBD5E1" fill-opacity="0.6"/>
  <rect x="96" y="226" width="210" height="42" rx="14" fill="#1E293B"/>
  <rect x="108" y="239" width="128" height="16" rx="8" fill="#F8FAFC"/>
  <rect x="96" y="282" width="210" height="42" rx="14" fill="#0EA5E9" fill-opacity="0.24"/>
  <rect x="108" y="295" width="150" height="16" rx="8" fill="#E0F2FE"/>
  <rect x="96" y="338" width="210" height="42" rx="14" fill="#1E293B"/>
  <rect x="108" y="351" width="110" height="16" rx="8" fill="#F8FAFC"/>
  <rect x="96" y="394" width="210" height="42" rx="14" fill="#1E293B"/>
  <rect x="108" y="407" width="172" height="16" rx="8" fill="#F8FAFC"/>
  <rect x="96" y="450" width="210" height="42" rx="14" fill="#1E293B"/>
  <rect x="108" y="463" width="138" height="16" rx="8" fill="#F8FAFC"/>

  <text x="396" y="164" fill="#E2E8F0" font-family="Segoe UI, Arial, sans-serif" font-size="24" font-weight="700">
    Mendix RAG Solutions Demo
  </text>
  <text x="396" y="226" fill="#F8FAFC" font-family="Segoe UI, Arial, sans-serif" font-size="56" font-weight="800">
    企业知识问答与流程助手
  </text>
  <text x="396" y="278" fill="#CBD5E1" font-family="Segoe UI, Arial, sans-serif" font-size="26" font-weight="500">
    RAG · GenAI · Workflow · Mendix
  </text>

  <rect x="396" y="334" width="236" height="54" rx="16" fill="#0EA5E9" fill-opacity="0.18" stroke="#38BDF8"/>
  <text x="426" y="368" fill="#E0F2FE" font-family="Segoe UI, Arial, sans-serif" font-size="24" font-weight="700">
    Docling
  </text>
  <rect x="648" y="334" width="236" height="54" rx="16" fill="#10B981" fill-opacity="0.16" stroke="#34D399"/>
  <text x="678" y="368" fill="#D1FAE5" font-family="Segoe UI, Arial, sans-serif" font-size="24" font-weight="700">
    PostgreSQL + pgvector
  </text>
  <rect x="900" y="334" width="236" height="54" rx="16" fill="#F97316" fill-opacity="0.16" stroke="#FDBA74"/>
  <text x="930" y="368" fill="#FFEDD5" font-family="Segoe UI, Arial, sans-serif" font-size="24" font-weight="700">
    DeepSeek
  </text>

  <rect x="396" y="428" width="740" height="84" rx="20" fill="#0F172A" fill-opacity="0.5" stroke="#334155"/>
  <text x="432" y="468" fill="#F8FAFC" font-family="Segoe UI, Arial, sans-serif" font-size="24" font-weight="700">
    开源 RAG 做验证，Mendix 做交付
  </text>
  <text x="432" y="502" fill="#CBD5E1" font-family="Segoe UI, Arial, sans-serif" font-size="22" font-weight="500">
    可问答、可追溯、可治理、可进入 Workflow 的企业应用方案
  </text>

  <defs>
    <linearGradient id="bg" x1="24" y1="24" x2="1256" y2="616" gradientUnits="userSpaceOnUse">
      <stop stop-color="#0F172A"/>
      <stop offset="0.55" stop-color="#111827"/>
      <stop offset="1" stop-color="#0C4A6E"/>
    </linearGradient>
  </defs>
</svg>
